#define Winder_Middle_width 9
#define Winder_Middle_height 7
static unsigned char Winder_Middle_bits[] = {
   0x01, 0x01, 0x11, 0x01, 0x39, 0x01, 0xff, 0x01, 0x39, 0x01, 0x11, 0x01,
   0x01, 0x01 };
