#define Winder_Left_width 9
#define Winder_Left_height 7
static unsigned char Winder_Left_bits[] = {
   0x01, 0x01, 0x03, 0x01, 0x07, 0x01, 0xff, 0x01, 0x07, 0x01, 0x03, 0x01,
   0x01, 0x01 };
