#define Winder_Right_width 9
#define Winder_Right_height 7
static unsigned char Winder_Right_bits[] = {
   0x01, 0x01, 0x81, 0x01, 0xc1, 0x01, 0xff, 0x01, 0xc1, 0x01, 0x81, 0x01,
   0x01, 0x01 };
